<svg width="74" height="74" viewBox="0 0 74 74" fill="none" xmlns="http://www.w3.org/2000/svg">
<foreignObject x="-118" y="-118" width="310" height="310"><div xmlns="http://www.w3.org/1999/xhtml" style="backdrop-filter:blur(59px);clip-path:url(#bgblur_1_3840_3418_clip_path);height:100%;width:100%"></div></foreignObject><g data-figma-bg-blur-radius="118">
<g clip-path="url(#clip0_3840_3418)">
<rect width="74" height="74" rx="10" fill="white" fill-opacity="0.2"/>
<g filter="url(#filter1_f_3840_3418)">
<circle cx="40.4099" cy="23.1563" r="9.90529" fill="#FFC701" fill-opacity="0.5"/>
</g>
<circle cx="40.4099" cy="23.481" r="9.16294" fill="url(#paint0_linear_3840_3418)" stroke="url(#paint1_linear_3840_3418)" stroke-width="0.835181"/>
<mask id="mask0_3840_3418" style="mask-type:alpha" maskUnits="userSpaceOnUse" x="30" y="19" width="20" height="15">
<path d="M49.9904 23.4811C49.9904 28.7722 45.7011 33.0616 40.4099 33.0616C35.1187 33.0616 30.8293 28.7722 30.8293 23.4811C30.8293 18.1899 34.388 19.4215 39.6792 19.4215C44.9703 19.4215 49.9904 18.1899 49.9904 23.4811Z" fill="url(#paint2_linear_3840_3418)"/>
</mask>
<g mask="url(#mask0_3840_3418)">
<g filter="url(#filter2_f_3840_3418)">
<path fill-rule="evenodd" clip-rule="evenodd" d="M47.9607 48.0003C47.9877 48.0006 48.0148 48.0007 48.0419 48.0007C51.8982 48.0007 55.0243 44.8746 55.0243 41.0183C55.0243 37.162 51.8982 34.0359 48.0419 34.0359C48.0148 34.0359 47.9877 34.036 47.9607 34.0363V34.0359H43.5094C43.6069 33.455 43.6576 32.8583 43.6576 32.2497C43.6576 26.3307 38.8593 21.5325 32.9404 21.5325C27.0214 21.5325 22.2232 26.3307 22.2232 32.2497C22.2232 32.882 22.2779 33.5015 22.383 34.1037C18.9892 34.5788 16.3774 37.4935 16.3774 41.0183C16.3774 44.8746 19.5036 48.0007 23.3599 48.0007C23.3871 48.0007 23.4143 48.0006 23.4414 48.0002L23.4411 48.0007H47.9607V48.0003Z" fill="#E18700"/>
</g>
</g>
<foreignObject x="-17.331" y="8.05341" width="80.406" height="67.9025"><div xmlns="http://www.w3.org/1999/xhtml" style="backdrop-filter:blur(2.92px);clip-path:url(#bgblur_2_3840_3418_clip_path);height:100%;width:100%"></div></foreignObject><g filter="url(#filter3_d_3840_3418)" data-figma-bg-blur-radius="5.84626">
<mask id="path-6-inside-1_3840_3418" fill="white">
<path fill-rule="evenodd" clip-rule="evenodd" d="M43.9011 48.8121C43.9282 48.8124 43.9552 48.8125 43.9823 48.8125C47.8386 48.8125 50.9648 45.6864 50.9648 41.8301C50.9648 37.9738 47.8386 34.8477 43.9823 34.8477C43.9552 34.8477 43.9282 34.8479 43.9011 34.8482V34.8477H42.0973C42.1625 34.3699 42.1961 33.882 42.1961 33.3863C42.1961 27.4673 37.3979 22.6691 31.4789 22.6691C25.56 22.6691 20.7617 27.4673 20.7617 33.3863C20.7617 33.9448 20.8045 34.4933 20.8868 35.0287C20.3771 34.9103 19.846 34.8477 19.3003 34.8477C15.444 34.8477 12.3179 37.9738 12.3179 41.8301C12.3179 45.6864 15.444 48.8125 19.3003 48.8125C19.3275 48.8125 19.3547 48.8124 19.3818 48.8121L19.3815 48.8125H43.9011V48.8121Z"/>
</mask>
<path fill-rule="evenodd" clip-rule="evenodd" d="M43.9011 48.8121C43.9282 48.8124 43.9552 48.8125 43.9823 48.8125C47.8386 48.8125 50.9648 45.6864 50.9648 41.8301C50.9648 37.9738 47.8386 34.8477 43.9823 34.8477C43.9552 34.8477 43.9282 34.8479 43.9011 34.8482V34.8477H42.0973C42.1625 34.3699 42.1961 33.882 42.1961 33.3863C42.1961 27.4673 37.3979 22.6691 31.4789 22.6691C25.56 22.6691 20.7617 27.4673 20.7617 33.3863C20.7617 33.9448 20.8045 34.4933 20.8868 35.0287C20.3771 34.9103 19.846 34.8477 19.3003 34.8477C15.444 34.8477 12.3179 37.9738 12.3179 41.8301C12.3179 45.6864 15.444 48.8125 19.3003 48.8125C19.3275 48.8125 19.3547 48.8124 19.3818 48.8121L19.3815 48.8125H43.9011V48.8121Z" fill="url(#paint3_linear_3840_3418)" shape-rendering="crispEdges"/>
<path d="M43.9011 48.8121L43.9106 47.977C43.6875 47.9744 43.4726 48.0613 43.3139 48.2182C43.1553 48.3751 43.066 48.5889 43.066 48.8121H43.9011ZM43.9011 34.8482H43.066C43.066 35.0713 43.1553 35.2852 43.314 35.4421C43.4726 35.599 43.6875 35.6858 43.9107 35.6833L43.9011 34.8482ZM43.9011 34.8477H44.7363C44.7363 34.3864 44.3624 34.0125 43.9011 34.0125V34.8477ZM42.0973 34.8477L41.2698 34.7349C41.2372 34.9738 41.3095 35.2152 41.4681 35.3969C41.6267 35.5786 41.8561 35.6829 42.0973 35.6829V34.8477ZM20.8868 35.0287L20.6978 35.8422C20.9678 35.905 21.2513 35.8297 21.4546 35.6412C21.6579 35.4528 21.7544 35.1757 21.7123 34.9018L20.8868 35.0287ZM19.3818 48.8121L20.0379 49.3289C20.237 49.0762 20.2732 48.7317 20.1311 48.4432C19.9891 48.1546 19.6939 47.9733 19.3723 47.977L19.3818 48.8121ZM19.3815 48.8125L18.7254 48.2957C18.5274 48.547 18.4904 48.8893 18.6301 49.1772C18.7698 49.465 19.0616 49.6477 19.3815 49.6477V48.8125ZM43.9011 48.8125V49.6477C44.3624 49.6477 44.7363 49.2738 44.7363 48.8125H43.9011ZM43.9011 48.8121L43.8917 49.6472C43.9218 49.6476 43.9521 49.6477 43.9823 49.6477V48.8125V47.9774C43.9584 47.9774 43.9345 47.9772 43.9106 47.977L43.9011 48.8121ZM43.9823 48.8125V49.6477C48.2999 49.6477 51.7999 46.1477 51.7999 41.8301H50.9648H50.1296C50.1296 45.2252 47.3774 47.9774 43.9823 47.9774V48.8125ZM50.9648 41.8301H51.7999C51.7999 37.5126 48.2999 34.0125 43.9823 34.0125V34.8477V35.6829C47.3774 35.6829 50.1296 38.4351 50.1296 41.8301H50.9648ZM43.9823 34.8477V34.0125C43.9521 34.0125 43.9218 34.0127 43.8916 34.013L43.9011 34.8482L43.9107 35.6833C43.9345 35.683 43.9584 35.6829 43.9823 35.6829V34.8477ZM43.9011 34.8477H43.066V34.8482H43.9011H44.7363V34.8477H43.9011ZM42.0973 34.8477V35.6829H43.9011V34.8477V34.0125H42.0973V34.8477ZM42.0973 34.8477L42.9249 34.9605C42.9951 34.4454 43.0313 33.9198 43.0313 33.3863H42.1961H41.361C41.361 33.8441 41.3299 34.2943 41.2698 34.7349L42.0973 34.8477ZM42.1961 33.3863H43.0313C43.0313 27.0061 37.8591 21.8339 31.4789 21.8339V22.6691V23.5042C36.9366 23.5042 41.361 27.9286 41.361 33.3863H42.1961ZM31.4789 22.6691V21.8339C25.0987 21.8339 19.9266 27.0061 19.9266 33.3863H20.7617H21.5969C21.5969 27.9286 26.0212 23.5042 31.4789 23.5042V22.6691ZM20.7617 33.3863H19.9266C19.9266 33.9874 19.9725 34.5784 20.0613 35.1557L20.8868 35.0287L21.7123 34.9018C21.6364 34.4082 21.5969 33.9021 21.5969 33.3863H20.7617ZM20.8868 35.0287L21.0758 34.2152C20.5046 34.0825 19.9101 34.0125 19.3003 34.0125V34.8477V35.6829C19.7819 35.6829 20.2496 35.7381 20.6978 35.8422L20.8868 35.0287ZM19.3003 34.8477V34.0125C14.9827 34.0125 11.4827 37.5126 11.4827 41.8301H12.3179H13.1531C13.1531 38.4351 15.9053 35.6829 19.3003 35.6829V34.8477ZM12.3179 41.8301H11.4827C11.4827 46.1477 14.9827 49.6477 19.3003 49.6477V48.8125V47.9774C15.9053 47.9774 13.1531 45.2252 13.1531 41.8301H12.3179ZM19.3003 48.8125V49.6477C19.3307 49.6477 19.3611 49.6476 19.3914 49.6472L19.3818 48.8121L19.3723 47.977C19.3483 47.9772 19.3243 47.9774 19.3003 47.9774V48.8125ZM19.3815 48.8125L20.0375 49.3294L20.0379 49.3289L19.3818 48.8121L18.7258 48.2953L18.7254 48.2957L19.3815 48.8125ZM43.9011 48.8125V47.9774H19.3815V48.8125V49.6477H43.9011V48.8125ZM43.9011 48.8121H43.066V48.8125H43.9011H44.7363V48.8121H43.9011Z" fill="url(#paint4_linear_3840_3418)" mask="url(#path-6-inside-1_3840_3418)"/>
</g>
<foreignObject x="4.10328" y="8.05341" width="69.6887" height="60.6526"><div xmlns="http://www.w3.org/1999/xhtml" style="backdrop-filter:blur(2.92px);clip-path:url(#bgblur_3_3840_3418_clip_path);height:100%;width:100%"></div></foreignObject><g filter="url(#filter4_d_3840_3418)" data-figma-bg-blur-radius="5.84626">
<mask id="path-8-inside-2_3840_3418" fill="white">
<path fill-rule="evenodd" clip-rule="evenodd" d="M56.5771 41.5623C56.5966 41.5626 56.6162 41.5627 56.6358 41.5627C59.4227 41.5627 61.6819 39.3034 61.6819 36.5166C61.6819 33.7297 59.4227 31.4704 56.6358 31.4704C56.6162 31.4704 56.5966 31.4705 56.5771 31.4708V31.4704H55.2735C55.3206 31.1251 55.3449 30.7725 55.3449 30.4143C55.3449 26.1367 51.8772 22.6691 47.5997 22.6691C43.3221 22.6691 39.8545 26.1367 39.8545 30.4143C39.8545 30.8179 39.8854 31.2143 39.9449 31.6013C39.5765 31.5157 39.1927 31.4704 38.7983 31.4704C36.0114 31.4704 33.7522 33.7297 33.7522 36.5166C33.7522 39.3034 36.0114 41.5627 38.7983 41.5627C38.818 41.5627 38.8376 41.5626 38.8573 41.5623L38.857 41.5627H56.5771V41.5623Z"/>
</mask>
<path fill-rule="evenodd" clip-rule="evenodd" d="M56.5771 41.5623C56.5966 41.5626 56.6162 41.5627 56.6358 41.5627C59.4227 41.5627 61.6819 39.3034 61.6819 36.5166C61.6819 33.7297 59.4227 31.4704 56.6358 31.4704C56.6162 31.4704 56.5966 31.4705 56.5771 31.4708V31.4704H55.2735C55.3206 31.1251 55.3449 30.7725 55.3449 30.4143C55.3449 26.1367 51.8772 22.6691 47.5997 22.6691C43.3221 22.6691 39.8545 26.1367 39.8545 30.4143C39.8545 30.8179 39.8854 31.2143 39.9449 31.6013C39.5765 31.5157 39.1927 31.4704 38.7983 31.4704C36.0114 31.4704 33.7522 33.7297 33.7522 36.5166C33.7522 39.3034 36.0114 41.5627 38.7983 41.5627C38.818 41.5627 38.8376 41.5626 38.8573 41.5623L38.857 41.5627H56.5771V41.5623Z" fill="url(#paint5_linear_3840_3418)" shape-rendering="crispEdges"/>
<path d="M56.5771 41.5623L56.5866 40.7272C56.3635 40.7247 56.1486 40.8115 55.9899 40.9684C55.8312 41.1253 55.7419 41.3392 55.7419 41.5623H56.5771ZM56.5771 31.4708H55.7419C55.7419 31.6939 55.8312 31.9078 55.9899 32.0647C56.1486 32.2216 56.3634 32.3084 56.5866 32.3059L56.5771 31.4708ZM56.5771 31.4704H57.4123C57.4123 31.0092 57.0383 30.6353 56.5771 30.6353V31.4704ZM55.2735 31.4704L54.446 31.3576C54.4134 31.5966 54.4857 31.838 54.6443 32.0197C54.8029 32.2014 55.0323 32.3056 55.2735 32.3056V31.4704ZM39.9449 31.6013L39.7559 32.4148C40.0259 32.4775 40.3094 32.4022 40.5127 32.2137C40.7159 32.0253 40.8125 31.7483 40.7703 31.4743L39.9449 31.6013ZM38.8573 41.5623L39.5132 42.0793C39.7123 41.8267 39.7486 41.4821 39.6066 41.1935C39.4645 40.9049 39.1693 40.7235 38.8477 40.7272L38.8573 41.5623ZM38.857 41.5627L38.201 41.0457C38.003 41.297 37.9659 41.6393 38.1056 41.9272C38.2452 42.2151 38.537 42.3979 38.857 42.3979V41.5627ZM56.5771 41.5627V42.3979C57.0383 42.3979 57.4123 42.0239 57.4123 41.5627H56.5771ZM56.5771 41.5623L56.5675 42.3975C56.5903 42.3977 56.613 42.3979 56.6358 42.3979V41.5627V40.7275C56.6193 40.7275 56.6029 40.7274 56.5866 40.7272L56.5771 41.5623ZM56.6358 41.5627V42.3979C59.8839 42.3979 62.5171 39.7647 62.5171 36.5166H61.6819H60.8467C60.8467 38.8422 58.9614 40.7275 56.6358 40.7275V41.5627ZM61.6819 36.5166H62.5171C62.5171 33.2684 59.8839 30.6353 56.6358 30.6353V31.4704V32.3056C58.9614 32.3056 60.8467 34.1909 60.8467 36.5166H61.6819ZM56.6358 31.4704V30.6353C56.613 30.6353 56.5903 30.6354 56.5676 30.6356L56.5771 31.4708L56.5866 32.3059C56.603 32.3057 56.6194 32.3056 56.6358 32.3056V31.4704ZM56.5771 31.4704H55.7419V31.4708H56.5771H57.4123V31.4704H56.5771ZM55.2735 31.4704V32.3056H56.5771V31.4704V30.6353H55.2735V31.4704ZM55.2735 31.4704L56.101 31.5833C56.1532 31.2006 56.1801 30.8104 56.1801 30.4143H55.3449H54.5097C54.5097 30.7347 54.488 31.0496 54.446 31.3576L55.2735 31.4704ZM55.3449 30.4143H56.1801C56.1801 25.6755 52.3385 21.8339 47.5997 21.8339V22.6691V23.5042C51.416 23.5042 54.5097 26.598 54.5097 30.4143H55.3449ZM47.5997 22.6691V21.8339C42.8609 21.8339 39.0193 25.6755 39.0193 30.4143H39.8545H40.6897C40.6897 26.598 43.7834 23.5042 47.5997 23.5042V22.6691ZM39.8545 30.4143H39.0193C39.0193 30.8605 39.0534 31.2994 39.1194 31.7282L39.9449 31.6013L40.7703 31.4743C40.7173 31.1292 40.6897 30.7752 40.6897 30.4143H39.8545ZM39.9449 31.6013L40.1339 30.7877C39.704 30.6879 39.2568 30.6353 38.7983 30.6353V31.4704V32.3056C39.1286 32.3056 39.449 32.3435 39.7559 32.4148L39.9449 31.6013ZM38.7983 31.4704V30.6353C35.5502 30.6353 32.917 33.2684 32.917 36.5166H33.7522H34.5874C34.5874 34.1909 36.4727 32.3056 38.7983 32.3056V31.4704ZM33.7522 36.5166H32.917C32.917 39.7647 35.5502 42.3979 38.7983 42.3979V41.5627V40.7275C36.4727 40.7275 34.5874 38.8422 34.5874 36.5166H33.7522ZM38.7983 41.5627V42.3979C38.8212 42.3979 38.844 42.3977 38.8668 42.3975L38.8573 41.5623L38.8477 40.7272C38.8313 40.7274 38.8148 40.7275 38.7983 40.7275V41.5627ZM38.857 41.5627L39.5129 42.0796L39.5132 42.0793L38.8573 41.5623L38.2013 41.0454L38.201 41.0457L38.857 41.5627ZM56.5771 41.5627V40.7275H38.857V41.5627V42.3979H56.5771V41.5627ZM56.5771 41.5623H55.7419V41.5627H56.5771H57.4123V41.5623H56.5771Z" fill="url(#paint6_linear_3840_3418)" mask="url(#path-8-inside-2_3840_3418)"/>
</g>
<g filter="url(#filter5_dd_3840_3418)">
<path d="M22.0526 47.232C22.445 46.7285 23.2515 46.9738 23.2971 47.6106L23.4876 50.2796C23.5734 51.4856 22.4232 52.4035 21.2664 52.0517C20.1095 51.6998 19.6652 50.2969 20.4082 49.3429L22.0526 47.232Z" fill="url(#paint7_linear_3840_3418)" stroke="url(#paint8_linear_3840_3418)" stroke-width="0.835181"/>
<path d="M31.3907 47.232C31.7832 46.7285 32.5897 46.9738 32.6352 47.6106L32.8257 50.2796C32.9115 51.4856 31.7613 52.4035 30.6045 52.0517C29.4476 51.6998 29.0034 50.2969 29.7463 49.3429L31.3907 47.232Z" fill="url(#paint9_linear_3840_3418)" stroke="url(#paint10_linear_3840_3418)" stroke-width="0.835181"/>
<path d="M40.7289 47.232C41.1213 46.7285 41.9278 46.9738 41.9734 47.6106L42.1639 50.2796C42.2497 51.4856 41.0995 52.4035 39.9426 52.0517C38.7857 51.6998 38.3415 50.2969 39.0844 49.3429L40.7289 47.232Z" fill="url(#paint11_linear_3840_3418)" stroke="url(#paint12_linear_3840_3418)" stroke-width="0.835181"/>
</g>
<g filter="url(#filter6_dd_3840_3418)">
<path d="M24.5165 54.6236C24.9089 54.1201 25.7154 54.3654 25.761 55.0022L25.9515 57.6712C26.0373 58.8772 24.8871 59.7951 23.7302 59.4433C22.5733 59.0914 22.1291 57.6885 22.872 56.7345L24.5165 54.6236Z" fill="url(#paint13_linear_3840_3418)" stroke="url(#paint14_linear_3840_3418)" stroke-width="0.835181"/>
<path d="M32.4061 54.6236C32.7986 54.1201 33.6051 54.3654 33.6506 55.0022L33.8411 57.6712C33.9269 58.8772 32.7767 59.7951 31.6199 59.4433C30.463 59.0914 30.0187 57.6885 30.7617 56.7345L32.4061 54.6236Z" fill="url(#paint15_linear_3840_3418)" stroke="url(#paint16_linear_3840_3418)" stroke-width="0.835181"/>
</g>
</g>
</g>
<defs>
<clipPath id="bgblur_1_3840_3418_clip_path" transform="translate(118 118)"><rect width="74" height="74" rx="10"/>
</clipPath><filter id="filter1_f_3840_3418" x="12.1307" y="-5.123" width="56.5585" height="56.5585" filterUnits="userSpaceOnUse" color-interpolation-filters="sRGB">
<feFlood flood-opacity="0" result="BackgroundImageFix"/>
<feBlend mode="normal" in="SourceGraphic" in2="BackgroundImageFix" result="shape"/>
<feGaussianBlur stdDeviation="9.18699" result="effect1_foregroundBlur_3840_3418"/>
</filter>
<filter id="filter2_f_3840_3418" x="10.5312" y="15.6862" width="50.3395" height="38.1608" filterUnits="userSpaceOnUse" color-interpolation-filters="sRGB">
<feFlood flood-opacity="0" result="BackgroundImageFix"/>
<feBlend mode="normal" in="SourceGraphic" in2="BackgroundImageFix" result="shape"/>
<feGaussianBlur stdDeviation="2.92313" result="effect1_foregroundBlur_3840_3418"/>
</filter>
<filter id="filter3_d_3840_3418" x="-17.331" y="8.05341" width="80.406" height="67.9025" filterUnits="userSpaceOnUse" color-interpolation-filters="sRGB">
<feFlood flood-opacity="0" result="BackgroundImageFix"/>
<feColorMatrix in="SourceAlpha" type="matrix" values="0 0 0 0 0 0 0 0 0 0 0 0 0 0 0 0 0 0 127 0" result="hardAlpha"/>
<feOffset dx="-8.7694" dy="6.26385"/>
<feGaussianBlur stdDeviation="10.4398"/>
<feComposite in2="hardAlpha" operator="out"/>
<feColorMatrix type="matrix" values="0 0 0 0 0.113725 0 0 0 0 0.14902 0 0 0 0 0.27451 0 0 0 0.25 0"/>
<feBlend mode="normal" in2="BackgroundImageFix" result="effect1_dropShadow_3840_3418"/>
<feBlend mode="normal" in="SourceGraphic" in2="effect1_dropShadow_3840_3418" result="shape"/>
</filter>
<clipPath id="bgblur_2_3840_3418_clip_path" transform="translate(17.331 -8.05341)"><path fill-rule="evenodd" clip-rule="evenodd" d="M43.9011 48.8121C43.9282 48.8124 43.9552 48.8125 43.9823 48.8125C47.8386 48.8125 50.9648 45.6864 50.9648 41.8301C50.9648 37.9738 47.8386 34.8477 43.9823 34.8477C43.9552 34.8477 43.9282 34.8479 43.9011 34.8482V34.8477H42.0973C42.1625 34.3699 42.1961 33.882 42.1961 33.3863C42.1961 27.4673 37.3979 22.6691 31.4789 22.6691C25.56 22.6691 20.7617 27.4673 20.7617 33.3863C20.7617 33.9448 20.8045 34.4933 20.8868 35.0287C20.3771 34.9103 19.846 34.8477 19.3003 34.8477C15.444 34.8477 12.3179 37.9738 12.3179 41.8301C12.3179 45.6864 15.444 48.8125 19.3003 48.8125C19.3275 48.8125 19.3547 48.8124 19.3818 48.8121L19.3815 48.8125H43.9011V48.8121Z"/>
</clipPath><filter id="filter4_d_3840_3418" x="4.10328" y="8.05341" width="69.6887" height="60.6526" filterUnits="userSpaceOnUse" color-interpolation-filters="sRGB">
<feFlood flood-opacity="0" result="BackgroundImageFix"/>
<feColorMatrix in="SourceAlpha" type="matrix" values="0 0 0 0 0 0 0 0 0 0 0 0 0 0 0 0 0 0 127 0" result="hardAlpha"/>
<feOffset dx="-8.7694" dy="6.26385"/>
<feGaussianBlur stdDeviation="10.4398"/>
<feComposite in2="hardAlpha" operator="out"/>
<feColorMatrix type="matrix" values="0 0 0 0 0.113438 0 0 0 0 0.148981 0 0 0 0 0.275 0 0 0 0.25 0"/>
<feBlend mode="normal" in2="BackgroundImageFix" result="effect1_dropShadow_3840_3418"/>
<feBlend mode="normal" in="SourceGraphic" in2="effect1_dropShadow_3840_3418" result="shape"/>
</filter>
<clipPath id="bgblur_3_3840_3418_clip_path" transform="translate(-4.10328 -8.05341)"><path fill-rule="evenodd" clip-rule="evenodd" d="M56.5771 41.5623C56.5966 41.5626 56.6162 41.5627 56.6358 41.5627C59.4227 41.5627 61.6819 39.3034 61.6819 36.5166C61.6819 33.7297 59.4227 31.4704 56.6358 31.4704C56.6162 31.4704 56.5966 31.4705 56.5771 31.4708V31.4704H55.2735C55.3206 31.1251 55.3449 30.7725 55.3449 30.4143C55.3449 26.1367 51.8772 22.6691 47.5997 22.6691C43.3221 22.6691 39.8545 26.1367 39.8545 30.4143C39.8545 30.8179 39.8854 31.2143 39.9449 31.6013C39.5765 31.5157 39.1927 31.4704 38.7983 31.4704C36.0114 31.4704 33.7522 33.7297 33.7522 36.5166C33.7522 39.3034 36.0114 41.5627 38.7983 41.5627C38.818 41.5627 38.8376 41.5626 38.8573 41.5623L38.857 41.5627H56.5771V41.5623Z"/>
</clipPath><filter id="filter5_dd_3840_3418" x="-10.0234" y="26.5" width="69.7308" height="53.1886" filterUnits="userSpaceOnUse" color-interpolation-filters="sRGB">
<feFlood flood-opacity="0" result="BackgroundImageFix"/>
<feColorMatrix in="SourceAlpha" type="matrix" values="0 0 0 0 0 0 0 0 0 0 0 0 0 0 0 0 0 0 127 0" result="hardAlpha"/>
<feOffset dx="-8.7694" dy="6.26385"/>
<feGaussianBlur stdDeviation="10.4398"/>
<feComposite in2="hardAlpha" operator="out"/>
<feColorMatrix type="matrix" values="0 0 0 0 0.113438 0 0 0 0 0.148981 0 0 0 0 0.275 0 0 0 0.25 0"/>
<feBlend mode="normal" in2="BackgroundImageFix" result="effect1_dropShadow_3840_3418"/>
<feColorMatrix in="SourceAlpha" type="matrix" values="0 0 0 0 0 0 0 0 0 0 0 0 0 0 0 0 0 0 127 0" result="hardAlpha"/>
<feOffset dy="-2.92313"/>
<feGaussianBlur stdDeviation="8.5606"/>
<feComposite in2="hardAlpha" operator="out"/>
<feColorMatrix type="matrix" values="0 0 0 0 0.1375 0 0 0 0 0.74125 0 0 0 0 1 0 0 0 0.3 0"/>
<feBlend mode="normal" in2="effect1_dropShadow_3840_3418" result="effect2_dropShadow_3840_3418"/>
<feBlend mode="normal" in="SourceGraphic" in2="effect2_dropShadow_3840_3418" result="shape"/>
</filter>
<filter id="filter6_dd_3840_3418" x="-7.55956" y="33.8916" width="58.9442" height="53.1886" filterUnits="userSpaceOnUse" color-interpolation-filters="sRGB">
<feFlood flood-opacity="0" result="BackgroundImageFix"/>
<feColorMatrix in="SourceAlpha" type="matrix" values="0 0 0 0 0 0 0 0 0 0 0 0 0 0 0 0 0 0 127 0" result="hardAlpha"/>
<feOffset dx="-8.7694" dy="6.26385"/>
<feGaussianBlur stdDeviation="10.4398"/>
<feComposite in2="hardAlpha" operator="out"/>
<feColorMatrix type="matrix" values="0 0 0 0 0.113438 0 0 0 0 0.148981 0 0 0 0 0.275 0 0 0 0.25 0"/>
<feBlend mode="normal" in2="BackgroundImageFix" result="effect1_dropShadow_3840_3418"/>
<feColorMatrix in="SourceAlpha" type="matrix" values="0 0 0 0 0 0 0 0 0 0 0 0 0 0 0 0 0 0 127 0" result="hardAlpha"/>
<feOffset dy="-2.92313"/>
<feGaussianBlur stdDeviation="8.5606"/>
<feComposite in2="hardAlpha" operator="out"/>
<feColorMatrix type="matrix" values="0 0 0 0 0.1375 0 0 0 0 0.74125 0 0 0 0 1 0 0 0 0.3 0"/>
<feBlend mode="normal" in2="effect1_dropShadow_3840_3418" result="effect2_dropShadow_3840_3418"/>
<feBlend mode="normal" in="SourceGraphic" in2="effect2_dropShadow_3840_3418" result="shape"/>
</filter>
<linearGradient id="paint0_linear_3840_3418" x1="40.4099" y1="13.9005" x2="40.4099" y2="33.0616" gradientUnits="userSpaceOnUse">
<stop stop-color="#FFE600"/>
<stop offset="1" stop-color="#FF7A00"/>
</linearGradient>
<linearGradient id="paint1_linear_3840_3418" x1="40.4099" y1="13.9005" x2="40.4099" y2="33.0616" gradientUnits="userSpaceOnUse">
<stop stop-color="white"/>
<stop offset="1" stop-color="white" stop-opacity="0"/>
</linearGradient>
<linearGradient id="paint2_linear_3840_3418" x1="40.4099" y1="13.9005" x2="40.4099" y2="33.0616" gradientUnits="userSpaceOnUse">
<stop stop-color="#FFD600"/>
<stop offset="1" stop-color="#FF7A00"/>
</linearGradient>
<linearGradient id="paint3_linear_3840_3418" x1="31.6413" y1="14.3064" x2="31.6413" y2="52.4661" gradientUnits="userSpaceOnUse">
<stop stop-color="white"/>
<stop offset="1" stop-color="white" stop-opacity="0"/>
</linearGradient>
<linearGradient id="paint4_linear_3840_3418" x1="31.6413" y1="22.6691" x2="31.6413" y2="48.8125" gradientUnits="userSpaceOnUse">
<stop stop-color="white"/>
<stop offset="1" stop-color="white" stop-opacity="0"/>
</linearGradient>
<linearGradient id="paint5_linear_3840_3418" x1="49.0161" y1="23.2374" x2="49.0161" y2="43.6975" gradientUnits="userSpaceOnUse">
<stop stop-color="white"/>
<stop offset="1" stop-color="white" stop-opacity="0"/>
</linearGradient>
<linearGradient id="paint6_linear_3840_3418" x1="47.717" y1="22.6691" x2="47.717" y2="41.5627" gradientUnits="userSpaceOnUse">
<stop stop-color="white"/>
<stop offset="1" stop-color="white" stop-opacity="0"/>
</linearGradient>
<linearGradient id="paint7_linear_3840_3418" x1="23.5069" y1="44.6856" x2="21.1449" y2="52.4507" gradientUnits="userSpaceOnUse">
<stop stop-color="#138EFF"/>
<stop offset="1" stop-color="#00E0FF"/>
</linearGradient>
<linearGradient id="paint8_linear_3840_3418" x1="23.5069" y1="44.6856" x2="21.1449" y2="52.4507" gradientUnits="userSpaceOnUse">
<stop stop-color="white"/>
<stop offset="1" stop-color="white" stop-opacity="0"/>
</linearGradient>
<linearGradient id="paint9_linear_3840_3418" x1="32.845" y1="44.6856" x2="30.483" y2="52.4507" gradientUnits="userSpaceOnUse">
<stop stop-color="#138EFF"/>
<stop offset="1" stop-color="#00E0FF"/>
</linearGradient>
<linearGradient id="paint10_linear_3840_3418" x1="32.845" y1="44.6856" x2="30.483" y2="52.4507" gradientUnits="userSpaceOnUse">
<stop stop-color="white"/>
<stop offset="1" stop-color="white" stop-opacity="0"/>
</linearGradient>
<linearGradient id="paint11_linear_3840_3418" x1="42.1831" y1="44.6856" x2="39.8211" y2="52.4507" gradientUnits="userSpaceOnUse">
<stop stop-color="#138EFF"/>
<stop offset="1" stop-color="#00E0FF"/>
</linearGradient>
<linearGradient id="paint12_linear_3840_3418" x1="42.1831" y1="44.6856" x2="39.8211" y2="52.4507" gradientUnits="userSpaceOnUse">
<stop stop-color="white"/>
<stop offset="1" stop-color="white" stop-opacity="0"/>
</linearGradient>
<linearGradient id="paint13_linear_3840_3418" x1="25.9707" y1="52.0772" x2="23.6087" y2="59.8423" gradientUnits="userSpaceOnUse">
<stop stop-color="#138EFF"/>
<stop offset="1" stop-color="#00E0FF"/>
</linearGradient>
<linearGradient id="paint14_linear_3840_3418" x1="25.9707" y1="52.0772" x2="23.6087" y2="59.8423" gradientUnits="userSpaceOnUse">
<stop stop-color="white"/>
<stop offset="1" stop-color="white" stop-opacity="0"/>
</linearGradient>
<linearGradient id="paint15_linear_3840_3418" x1="33.8604" y1="52.0772" x2="31.4984" y2="59.8423" gradientUnits="userSpaceOnUse">
<stop stop-color="#138EFF"/>
<stop offset="1" stop-color="#00E0FF"/>
</linearGradient>
<linearGradient id="paint16_linear_3840_3418" x1="33.8604" y1="52.0772" x2="31.4984" y2="59.8423" gradientUnits="userSpaceOnUse">
<stop stop-color="white"/>
<stop offset="1" stop-color="white" stop-opacity="0"/>
</linearGradient>
<clipPath id="clip0_3840_3418">
<rect width="74" height="74" rx="10" fill="white"/>
</clipPath>
</defs>
</svg>
